HIERARCHY
ROOT Hips
{
	OFFSET 0.00000 0.00000 0.00000
	CHANNELS 6 Xposition Yposition Zposition Zrotation Yrotation Xrotation 
	JOINT LHipJoint
	{
		OFFSET 0 0 0
		CHANNELS 3 Zrotation Yrotation Xrotation
		JOINT LeftUpLeg
		{
			OFFSET 1.36337 -1.57426 1.11036
			CHANNELS 3 Zrotation Yrotation Xrotation
			JOINT LeftLeg
			{
				OFFSET 2.38468 -6.55187 0.00000
				CHANNELS 3 Zrotation Yrotation Xrotation
				JOINT LeftFoot
				{
					OFFSET 2.37166 -6.51609 0.00000
					CHANNELS 3 Zrotation Yrotation Xrotation
					JOINT LeftToeBase
					{
						OFFSET 0.29078 -0.79891 2.01393
						CHANNELS 3 Zrotation Yrotation Xrotation
						End Site
						{
							OFFSET 0.00000 -0.00000 1.07924
						}
					}
				}
			}
		}
	}
	JOINT RHipJoint
	{
		OFFSET 0 0 0
		CHANNELS 3 Zrotation Yrotation Xrotation
		JOINT RightUpLeg
		{
			OFFSET -1.36349 -1.57426 1.11036
			CHANNELS 3 Zrotation Yrotation Xrotation
			JOINT RightLeg
			{
				OFFSET -2.29562 -6.30717 0.00000
				CHANNELS 3 Zrotation Yrotation Xrotation
				JOINT RightFoot
				{
					OFFSET -2.40985 -6.62100 0.00000
					CHANNELS 3 Zrotation Yrotation Xrotation
					JOINT RightToeBase
					{
						OFFSET -0.23197 -0.63733 1.92232
						CHANNELS 3 Zrotation Yrotation Xrotation
						End Site
						{
							OFFSET -0.00000 -0.00000 1.01562
						}
					}
				}
			}
		}
	}
	JOINT LowerBack
	{
		OFFSET 0 0 0
		CHANNELS 3 Zrotation Yrotation Xrotation
		JOINT Spine
		{
			OFFSET -0.08565 2.03602 -0.24562
			CHANNELS 3 Zrotation Yrotation Xrotation
			JOINT Spine1
			{
				OFFSET -0.00036 2.05693 0.00216
				CHANNELS 3 Zrotation Yrotation Xrotation
				JOINT Neck
				{
					OFFSET 0 0 0
					CHANNELS 3 Zrotation Yrotation Xrotation
					JOINT Neck1
					{
						OFFSET -0.03664 1.69515 0.31789
						CHANNELS 3 Zrotation Yrotation Xrotation
						JOINT Head
						{
							OFFSET 0.00932 1.70181 -0.46013
							CHANNELS 3 Zrotation Yrotation Xrotation
							End Site
							{
								OFFSET 0.01243 1.77620 -0.19377
							}
						}
					}
				}
				JOINT LeftShoulder
				{
					OFFSET 0 0 0
					CHANNELS 3 Zrotation Yrotation Xrotation
					JOINT LeftArm
					{
						OFFSET 3.74344 0.81315 -0.36647
						CHANNELS 3 Zrotation Yrotation Xrotation
						JOINT LeftForeArm
						{
							OFFSET 4.97185 -0.00000 -0.00000
							CHANNELS 3 Zrotation Yrotation Xrotation
							JOINT LeftHand
							{
								OFFSET 3.35811 -0.00000 0.00000
								CHANNELS 3 Zrotation Yrotation Xrotation
								JOINT LeftFingerBase
								{
									OFFSET 0 0 0
									CHANNELS 3 Zrotation Yrotation Xrotation
									JOINT LeftHandIndex1
									{
										OFFSET 0.62278 -0.00000 0.00000
										CHANNELS 3 Zrotation Yrotation Xrotation
										End Site
										{
											OFFSET 0.50210 -0.00000 0.00000
										}
									}
								}
								JOINT LThumb
								{
									OFFSET 0 0 0
									CHANNELS 3 Zrotation Yrotation Xrotation
									End Site
									{
										OFFSET 0.50976 -0.00000 0.50976
									}
								}
							}
						}
					}
				}
				JOINT RightShoulder
				{
					OFFSET 0 0 0
					CHANNELS 3 Zrotation Yrotation Xrotation
					JOINT RightArm
					{
						OFFSET -3.75385 0.50666 -0.06525
						CHANNELS 3 Zrotation Yrotation Xrotation
						JOINT RightForeArm
						{
							OFFSET -4.96493 -0.00000 -0.00000
							CHANNELS 3 Zrotation Yrotation Xrotation
							JOINT RightHand
							{
								OFFSET -3.34929 -0.00000 0.00000
								CHANNELS 3 Zrotation Yrotation Xrotation
								JOINT RightFingerBase
								{
									OFFSET 0 0 0
									CHANNELS 3 Zrotation Yrotation Xrotation
									JOINT RightHandIndex1
									{
										OFFSET -0.63804 -0.00000 0.00000
										CHANNELS 3 Zrotation Yrotation Xrotation
										End Site
										{
											OFFSET -0.51441 -0.00000 0.00000
										}
									}
								}
								JOINT RThumb
								{
									OFFSET 0 0 0
									CHANNELS 3 Zrotation Yrotation Xrotation
									End Site
									{
										OFFSET -0.52226 -0.00000 0.52226
									}
								}
							}
						}
					}
				}
			}
		}
	}
}
MOTION
Frames: 8
Frame Time: 0.0555556
0.00 0.00 0.00 0 0 0 0 0 0 -21 0 0 0 0 0 0 0 0 0 0 0 0 0 0 21 0 0 0 0 0 0 0 0 0 0 0 0 0 0 0 0 0 0 0 0 0 0 -16 0 0 21 0 0 11 0 0 0 -8 0 0 0 0 0 0 0 0 0 0 0 0 0 0 0 0 0 0 0 0 8 0 0 0 0 0 0 0 0 0 0 0 0 0 0 0 0 0
0.00 0.00 0.00 199.2360 24.0127 -144.1820 0.0000 0.0000 0.0000 14.2435 3.8252 -42.2358 3.8788 11.9974 35.7228 -0.1876 15.6462 -20.1921 0.5701 -4.8358 -13.4407 0.0000 0.0000 0.0000 59.1524 -35.8678 -42.8534 0.0000 0.0000 -0.0000 1.7391 22.6067 7.2545 -0.0055 -0.4788 1.3155 20.4233 2.6493 -29.8519 5.7540 -2.9963 -1.5399 -5.3165 0.1793 12.8076 11.1417 13.2518 -15.8944 -9.3696 18.7957 21.6715 -2.1177 8.6273 11.6630 0.0000 -0.0000 0.0000 -88.6296 -3.9724 36.5536 16.4219 -26.0894 -3.8296 -0.0000 0.0000 -6.7853 23.1696 -14.0818 -5.9447 -7.1250 0.0000 -0.0000 -2.9154 14.7318 2.0810 0.0000 -0.0000 0.0000 83.9630 -6.0678 12.8497 -17.1526 27.0585 -4.1565 0.0000 -0.0000 -8.1299 -8.2442 -32.7603 4.4830 7.1250 -0.0000 -0.0000 28.0447 -60.7772 -11.2935
0.00 0.00 0.00 221.8970 74.2045 -114.9620 0.0000 0.0000 0.0000 -4.8414 -5.7024 -30.4127 2.5049 9.8468 28.4820 1.4672 8.3213 -27.2341 0.0158 -0.8120 -2.2315 0.0000 0.0000 0.0000 18.9411 4.3583 -29.1243 0.0000 0.0000 -0.0000 0.6794 -14.4187 -5.7055 -0.2526 3.2341 -8.9311 4.8061 3.3702 -16.8733 1.5004 3.4948 -0.2393 -0.2193 1.8948 9.4174 16.0970 18.8306 -5.8994 -11.5759 27.0501 18.1160 -2.6580 12.9269 10.5196 -0.0000 0.0000 0.0000 -83.7290 -10.0873 28.9008 14.6234 -23.6189 -3.0735 -0.0000 0.0000 -5.7090 26.0718 -12.2087 -5.9074 -7.1250 0.0000 -0.0000 -0.8014 16.4373 0.5419 -0.0000 0.0000 0.0000 86.8957 -4.1334 19.9100 -21.5650 32.4819 -6.3507 0.0000 -0.0000 -5.7452 -0.6615 -31.2256 0.3429 7.1250 -0.0000 -0.0000 34.1345 -57.7564 -11.5427
0.00 0.00 0.00 211.5410 82.0592 -124.4110 0.0000 0.0000 0.0000 -12.1524 -8.1815 -28.9066 1.9553 8.7723 25.0856 1.1572 12.8319 -28.6099 0.0040 0.4065 1.1169 0.0000 0.0000 0.0000 9.8736 3.6735 -29.6489 -0.8368 -5.8353 16.3072 1.2095 -19.8774 -13.7617 -0.1017 -2.0562 5.6611 -1.4361 2.9709 -19.1091 -0.1716 4.3651 -0.9260 1.8093 2.0643 9.6094 16.7641 18.2440 -4.7705 -11.7114 26.9100 20.2195 -2.8526 12.9490 11.1927 -0.0000 0.0000 0.0000 -83.1197 -9.6239 24.9034 13.5699 -22.1165 -2.6640 -0.0000 0.0000 -6.7363 26.8588 -11.7585 -5.8922 -7.1250 0.0000 -0.0000 -0.2237 16.8463 0.1493 -0.0000 0.0000 0.0000 88.0155 -6.2007 10.6241 -15.4176 24.7247 -3.3987 0.0000 -0.0000 -0.6578 -1.9071 -32.6534 1.0293 7.1250 -0.0000 -0.0000 34.2607 -59.2085 -12.8182
0.00 0.00 0.00 110.5810 87.5561 -222.1430 0.0000 0.0000 0.0000 -17.1731 -9.5938 -29.3878 1.3847 7.4455 21.0422 0.8957 16.4197 -30.2964 0.1114 2.1517 5.9251 0.0000 0.0000 0.0000 4.0775 9.4691 -25.7316 -0.6033 -4.9721 13.8289 0.5278 -23.6771 -29.8523 -0.2579 -3.2672 9.0236 -6.3395 1.9072 -23.9528 -1.7487 4.6337 -1.5179 3.1984 1.9694 11.3664 16.7436 18.4837 -4.5682 -12.9363 27.4746 19.5665 -3.1490 13.1358 11.2075 0.0000 0.0000 0.0000 -84.8896 -6.6238 19.1994 10.9854 -18.2659 -1.7713 -0.0000 -0.0000 0.0260 26.3636 -10.2525 -5.0411 -7.1250 0.0000 -0.0000 -0.4711 18.5671 0.2966 0.0000 0.0000 0.0000 88.4440 -6.4751 14.4851 -18.0727 28.2501 -4.5836 0.0000 -0.0000 -6.9886 -5.0796 -31.5303 2.6614 7.1250 -0.0000 -0.0000 30.1029 -58.9821 -10.9021
0.00 0.00 0.00 94.1385 80.0499 -238.6670 0.0000 0.0000 0.0000 -21.0802 -11.2162 -19.7963 0.1015 2.0547 5.6568 -1.7011 26.8870 -26.5047 0.0080 0.5777 1.5874 0.0000 0.0000 0.0000 -0.2736 10.9393 -30.1498 -1.7797 -8.3913 23.9090 -1.3937 -19.0766 -35.9451 -0.4347 -4.2309 11.7273 -11.8815 -0.1871 -26.5301 -2.4247 3.9439 -1.8405 5.4646 1.3798 12.1585 14.5384 16.8848 -7.9914 -8.0176 24.3986 24.2903 -1.5102 11.8078 12.0828 -0.0000 -0.0000 0.0000 -89.6569 -5.0700 44.2095 17.6557 -27.7141 -4.3880 -0.0000 0.0000 -9.0276 26.0505 -12.1767 -5.8868 -7.1250 0.0000 -0.0000 -0.8140 16.4749 0.5498 -0.0000 -0.0000 0.0000 84.6224 -3.0596 11.3594 -18.5761 28.8885 -4.8243 0.0000 -0.0000 -10.0418 -10.1283 -29.7132 5.0599 7.1250 -0.0000 -0.0000 23.5227 -58.4986 -8.0498
0.00 0.00 0.00 26.5198 85.9239 -314.9640 0.0000 0.0000 0.0000 -15.1895 0.3320 -26.4582 1.6149 8.0131 22.7540 0.0030 18.3145 -25.9544 0.0010 -0.2083 -0.5723 0.0000 0.0000 0.0000 11.6808 -0.0820 -32.1844 -2.0190 -8.9055 25.5002 -0.2749 -9.7943 -17.8086 -0.0055 0.4776 -1.3124 -1.4323 0.3174 -0.9010 0.7994 0.4621 2.8357 1.6434 0.1896 3.4018 -0.0241 3.6966 -22.3757 -2.9140 6.3840 25.3901 0.0007 2.5202 12.2028 -0.0000 0.0000 0.0000 -87.9865 -0.9774 45.6532 21.8033 -32.7540 -6.4791 -0.0000 0.0000 -11.3378 27.2770 -10.4706 -5.3533 -7.1250 0.0000 -0.0000 0.1589 18.2336 -0.1012 -0.0000 0.0000 0.0000 80.4109 1.4187 28.7429 -29.0332 40.0502 -10.7821 0.0000 -0.0000 -19.4957 -10.4484 -30.6038 5.3633 7.1250 -0.0000 -0.0000 23.8957 -59.3780 -8.6967
0.00 0.00 0.00 31.8280 79.3191 -307.0220 0.0000 0.0000 0.0000 -19.0719 6.3417 -42.5616 4.6479 12.9760 39.2785 0.4960 11.6278 -22.1391 0.1964 -2.8538 -7.8721 0.0000 0.0000 0.0000 7.6542 0.8488 -45.8282 -4.3403 -12.5999 37.8887 -0.9408 -3.1396 -19.7119 -0.0959 1.9968 -5.4969 -1.1410 -1.1562 12.3577 -0.3443 -1.4550 5.2487 0.4759 -0.6480 -1.4129 -1.0111 4.0452 -26.0162 -6.2647 7.5965 18.7299 -0.8412 2.6241 10.5270 -0.0000 0.0000 0.0000 -76.7284 -1.7050 46.1765 33.3146 -43.5705 -13.6384 -0.0000 0.0000 -16.8996 26.0572 -9.6414 -4.6817 -7.1250 0.0000 -0.0000 -0.6533 19.2719 0.4011 -0.0000 0.0000 0.0000 81.4087 2.0497 37.7281 -32.2979 42.7834 -12.9427 0.0000 -0.0000 -16.4641 -10.4589 -30.5292 5.3570 7.1250 -0.0000 -0.0000 23.8247 -59.3127 -8.6314
